<mxfile host="app.diagrams.net" modified="2024-04-27T20:13:43.628Z" agent="Mozilla/5.0 (Windows NT 10.0; Win64; x64) AppleWebKit/537.36 (KHTML, like Gecko) Chrome/124.0.0.0 Safari/537.36" etag="qgC2uSF19ePzl6-riCAL" version="24.2.5" type="device">
  <diagram name="Страница — 1" id="_wwsYMcQGPWURbPMlJze">
    <mxGraphModel dx="1500" dy="796" grid="1" gridSize="10" guides="1" tooltips="1" connect="1" arrows="1" fold="1" page="1" pageScale="1" pageWidth="827" pageHeight="1169" math="0" shadow="0">
      <root>
        <mxCell id="0" />
        <mxCell id="1" parent="0" />
        <mxCell id="9pKAA7TK1SYcLC_sK4hR-1" value="Заказчик" style="rounded=0;whiteSpace=wrap;html=1;" vertex="1" parent="1">
          <mxGeometry x="50" y="40" width="120" height="60" as="geometry" />
        </mxCell>
        <mxCell id="9pKAA7TK1SYcLC_sK4hR-4" value="Фрилансер" style="rounded=0;whiteSpace=wrap;html=1;" vertex="1" parent="1">
          <mxGeometry x="250" y="40" width="120" height="60" as="geometry" />
        </mxCell>
        <mxCell id="9pKAA7TK1SYcLC_sK4hR-5" value="Сервер" style="rounded=0;whiteSpace=wrap;html=1;" vertex="1" parent="1">
          <mxGeometry x="450" y="40" width="120" height="60" as="geometry" />
        </mxCell>
        <mxCell id="9pKAA7TK1SYcLC_sK4hR-6" value="База данных" style="rounded=0;whiteSpace=wrap;html=1;" vertex="1" parent="1">
          <mxGeometry x="640" y="40" width="120" height="60" as="geometry" />
        </mxCell>
        <mxCell id="9pKAA7TK1SYcLC_sK4hR-7" value="" style="endArrow=none;dashed=1;html=1;dashPattern=1 3;strokeWidth=2;rounded=0;entryX=0.5;entryY=1;entryDx=0;entryDy=0;" edge="1" parent="1" source="9pKAA7TK1SYcLC_sK4hR-11" target="9pKAA7TK1SYcLC_sK4hR-1">
          <mxGeometry width="50" height="50" relative="1" as="geometry">
            <mxPoint x="110" y="550" as="sourcePoint" />
            <mxPoint x="440" y="270" as="targetPoint" />
          </mxGeometry>
        </mxCell>
        <mxCell id="9pKAA7TK1SYcLC_sK4hR-8" value="" style="endArrow=none;dashed=1;html=1;dashPattern=1 3;strokeWidth=2;rounded=0;entryX=0.5;entryY=1;entryDx=0;entryDy=0;" edge="1" parent="1" source="9pKAA7TK1SYcLC_sK4hR-51">
          <mxGeometry width="50" height="50" relative="1" as="geometry">
            <mxPoint x="309.5" y="550" as="sourcePoint" />
            <mxPoint x="309.5" y="100" as="targetPoint" />
          </mxGeometry>
        </mxCell>
        <mxCell id="9pKAA7TK1SYcLC_sK4hR-9" value="" style="endArrow=none;dashed=1;html=1;dashPattern=1 3;strokeWidth=2;rounded=0;entryX=0.5;entryY=1;entryDx=0;entryDy=0;" edge="1" parent="1" source="9pKAA7TK1SYcLC_sK4hR-15">
          <mxGeometry width="50" height="50" relative="1" as="geometry">
            <mxPoint x="509.5" y="550" as="sourcePoint" />
            <mxPoint x="509.5" y="100" as="targetPoint" />
          </mxGeometry>
        </mxCell>
        <mxCell id="9pKAA7TK1SYcLC_sK4hR-10" value="" style="endArrow=none;dashed=1;html=1;dashPattern=1 3;strokeWidth=2;rounded=0;entryX=0.5;entryY=1;entryDx=0;entryDy=0;" edge="1" parent="1" source="9pKAA7TK1SYcLC_sK4hR-20">
          <mxGeometry width="50" height="50" relative="1" as="geometry">
            <mxPoint x="700" y="550" as="sourcePoint" />
            <mxPoint x="700" y="100" as="targetPoint" />
          </mxGeometry>
        </mxCell>
        <mxCell id="9pKAA7TK1SYcLC_sK4hR-12" value="" style="endArrow=none;dashed=1;html=1;dashPattern=1 3;strokeWidth=2;rounded=0;entryX=0.5;entryY=1;entryDx=0;entryDy=0;" edge="1" parent="1" source="9pKAA7TK1SYcLC_sK4hR-80" target="9pKAA7TK1SYcLC_sK4hR-11">
          <mxGeometry width="50" height="50" relative="1" as="geometry">
            <mxPoint x="110" y="550" as="sourcePoint" />
            <mxPoint x="110" y="100" as="targetPoint" />
          </mxGeometry>
        </mxCell>
        <mxCell id="9pKAA7TK1SYcLC_sK4hR-11" value="" style="rounded=0;whiteSpace=wrap;html=1;" vertex="1" parent="1">
          <mxGeometry x="100" y="140" width="20" height="60" as="geometry" />
        </mxCell>
        <mxCell id="9pKAA7TK1SYcLC_sK4hR-14" value="" style="endArrow=classic;html=1;rounded=0;exitX=0.75;exitY=0;exitDx=0;exitDy=0;entryX=0;entryY=0;entryDx=0;entryDy=0;" edge="1" parent="1" source="9pKAA7TK1SYcLC_sK4hR-11" target="9pKAA7TK1SYcLC_sK4hR-15">
          <mxGeometry width="50" height="50" relative="1" as="geometry">
            <mxPoint x="160" y="200" as="sourcePoint" />
            <mxPoint x="480" y="140" as="targetPoint" />
          </mxGeometry>
        </mxCell>
        <mxCell id="9pKAA7TK1SYcLC_sK4hR-19" value="Запрос на создание заказа" style="edgeLabel;html=1;align=left;verticalAlign=middle;resizable=0;points=[];" vertex="1" connectable="0" parent="9pKAA7TK1SYcLC_sK4hR-14">
          <mxGeometry relative="1" as="geometry">
            <mxPoint x="-65" as="offset" />
          </mxGeometry>
        </mxCell>
        <mxCell id="9pKAA7TK1SYcLC_sK4hR-16" value="" style="endArrow=none;dashed=1;html=1;dashPattern=1 3;strokeWidth=2;rounded=0;entryX=0.5;entryY=1;entryDx=0;entryDy=0;" edge="1" parent="1" source="9pKAA7TK1SYcLC_sK4hR-57" target="9pKAA7TK1SYcLC_sK4hR-15">
          <mxGeometry width="50" height="50" relative="1" as="geometry">
            <mxPoint x="509.5" y="550" as="sourcePoint" />
            <mxPoint x="509.5" y="100" as="targetPoint" />
          </mxGeometry>
        </mxCell>
        <mxCell id="9pKAA7TK1SYcLC_sK4hR-15" value="" style="rounded=0;whiteSpace=wrap;html=1;" vertex="1" parent="1">
          <mxGeometry x="500" y="140" width="20" height="60" as="geometry" />
        </mxCell>
        <mxCell id="9pKAA7TK1SYcLC_sK4hR-21" value="" style="endArrow=none;dashed=1;html=1;dashPattern=1 3;strokeWidth=2;rounded=0;entryX=0.5;entryY=1;entryDx=0;entryDy=0;" edge="1" parent="1" target="9pKAA7TK1SYcLC_sK4hR-20">
          <mxGeometry width="50" height="50" relative="1" as="geometry">
            <mxPoint x="700" y="760" as="sourcePoint" />
            <mxPoint x="700" y="100" as="targetPoint" />
          </mxGeometry>
        </mxCell>
        <mxCell id="9pKAA7TK1SYcLC_sK4hR-20" value="" style="rounded=0;whiteSpace=wrap;html=1;" vertex="1" parent="1">
          <mxGeometry x="690" y="140" width="20" height="60" as="geometry" />
        </mxCell>
        <mxCell id="9pKAA7TK1SYcLC_sK4hR-22" value="" style="endArrow=classic;html=1;rounded=0;exitX=1.083;exitY=0.15;exitDx=0;exitDy=0;entryX=-0.083;entryY=0.139;entryDx=0;entryDy=0;exitPerimeter=0;entryPerimeter=0;" edge="1" parent="1" source="9pKAA7TK1SYcLC_sK4hR-15" target="9pKAA7TK1SYcLC_sK4hR-20">
          <mxGeometry width="50" height="50" relative="1" as="geometry">
            <mxPoint x="125" y="150" as="sourcePoint" />
            <mxPoint x="510" y="150" as="targetPoint" />
          </mxGeometry>
        </mxCell>
        <mxCell id="9pKAA7TK1SYcLC_sK4hR-23" value="Добавление заказа" style="edgeLabel;html=1;align=left;verticalAlign=middle;resizable=0;points=[];" vertex="1" connectable="0" parent="9pKAA7TK1SYcLC_sK4hR-22">
          <mxGeometry relative="1" as="geometry">
            <mxPoint x="-50" as="offset" />
          </mxGeometry>
        </mxCell>
        <mxCell id="9pKAA7TK1SYcLC_sK4hR-24" value="" style="rounded=0;whiteSpace=wrap;html=1;" vertex="1" parent="1">
          <mxGeometry x="710" y="155" width="10" height="30" as="geometry" />
        </mxCell>
        <mxCell id="9pKAA7TK1SYcLC_sK4hR-27" value="" style="endArrow=classic;html=1;rounded=0;entryX=1.081;entryY=0.829;entryDx=0;entryDy=0;exitX=1.04;exitY=0.176;exitDx=0;exitDy=0;exitPerimeter=0;entryPerimeter=0;" edge="1" parent="1" source="9pKAA7TK1SYcLC_sK4hR-24" target="9pKAA7TK1SYcLC_sK4hR-24">
          <mxGeometry width="50" height="50" relative="1" as="geometry">
            <mxPoint x="670" y="240" as="sourcePoint" />
            <mxPoint x="720" y="190" as="targetPoint" />
            <Array as="points">
              <mxPoint x="880" y="160" />
              <mxPoint x="880" y="180" />
              <mxPoint x="740" y="180" />
            </Array>
          </mxGeometry>
        </mxCell>
        <mxCell id="9pKAA7TK1SYcLC_sK4hR-28" value="Проверка допустимости добавления заказа" style="edgeLabel;html=1;align=center;verticalAlign=middle;resizable=0;points=[];" vertex="1" connectable="0" parent="9pKAA7TK1SYcLC_sK4hR-27">
          <mxGeometry x="-0.0084" relative="1" as="geometry">
            <mxPoint as="offset" />
          </mxGeometry>
        </mxCell>
        <mxCell id="9pKAA7TK1SYcLC_sK4hR-29" value="" style="endArrow=classic;html=1;rounded=0;exitX=0;exitY=0.75;exitDx=0;exitDy=0;entryX=1;entryY=0.75;entryDx=0;entryDy=0;" edge="1" parent="1" source="9pKAA7TK1SYcLC_sK4hR-20" target="9pKAA7TK1SYcLC_sK4hR-15">
          <mxGeometry width="50" height="50" relative="1" as="geometry">
            <mxPoint x="532" y="159" as="sourcePoint" />
            <mxPoint x="698" y="158" as="targetPoint" />
          </mxGeometry>
        </mxCell>
        <mxCell id="9pKAA7TK1SYcLC_sK4hR-30" value="Заказ добавлен" style="edgeLabel;html=1;align=left;verticalAlign=middle;resizable=0;points=[];" vertex="1" connectable="0" parent="9pKAA7TK1SYcLC_sK4hR-29">
          <mxGeometry relative="1" as="geometry">
            <mxPoint x="-40" as="offset" />
          </mxGeometry>
        </mxCell>
        <mxCell id="9pKAA7TK1SYcLC_sK4hR-31" value="" style="endArrow=classic;html=1;rounded=0;exitX=0;exitY=1;exitDx=0;exitDy=0;entryX=1;entryY=1;entryDx=0;entryDy=0;" edge="1" parent="1" source="9pKAA7TK1SYcLC_sK4hR-15" target="9pKAA7TK1SYcLC_sK4hR-11">
          <mxGeometry width="50" height="50" relative="1" as="geometry">
            <mxPoint x="125" y="150" as="sourcePoint" />
            <mxPoint x="510" y="150" as="targetPoint" />
          </mxGeometry>
        </mxCell>
        <mxCell id="9pKAA7TK1SYcLC_sK4hR-32" value="Оповещение о добавлении заказа" style="edgeLabel;html=1;align=left;verticalAlign=middle;resizable=0;points=[];" vertex="1" connectable="0" parent="9pKAA7TK1SYcLC_sK4hR-31">
          <mxGeometry relative="1" as="geometry">
            <mxPoint x="-65" as="offset" />
          </mxGeometry>
        </mxCell>
        <mxCell id="9pKAA7TK1SYcLC_sK4hR-37" value="" style="rounded=0;whiteSpace=wrap;html=1;" vertex="1" parent="1">
          <mxGeometry x="100" y="250" width="20" height="60" as="geometry" />
        </mxCell>
        <mxCell id="9pKAA7TK1SYcLC_sK4hR-38" value="" style="endArrow=classic;html=1;rounded=0;exitX=0.75;exitY=0;exitDx=0;exitDy=0;entryX=0;entryY=0;entryDx=0;entryDy=0;" edge="1" parent="1" source="9pKAA7TK1SYcLC_sK4hR-37" target="9pKAA7TK1SYcLC_sK4hR-40">
          <mxGeometry width="50" height="50" relative="1" as="geometry">
            <mxPoint x="160" y="310" as="sourcePoint" />
            <mxPoint x="480" y="250" as="targetPoint" />
          </mxGeometry>
        </mxCell>
        <mxCell id="9pKAA7TK1SYcLC_sK4hR-39" value="Предложение заказа фрилансеру" style="edgeLabel;html=1;align=left;verticalAlign=middle;resizable=0;points=[];" vertex="1" connectable="0" parent="9pKAA7TK1SYcLC_sK4hR-38">
          <mxGeometry relative="1" as="geometry">
            <mxPoint x="-65" as="offset" />
          </mxGeometry>
        </mxCell>
        <mxCell id="9pKAA7TK1SYcLC_sK4hR-40" value="" style="rounded=0;whiteSpace=wrap;html=1;" vertex="1" parent="1">
          <mxGeometry x="500" y="250" width="20" height="60" as="geometry" />
        </mxCell>
        <mxCell id="9pKAA7TK1SYcLC_sK4hR-41" value="" style="rounded=0;whiteSpace=wrap;html=1;" vertex="1" parent="1">
          <mxGeometry x="690" y="250" width="20" height="60" as="geometry" />
        </mxCell>
        <mxCell id="9pKAA7TK1SYcLC_sK4hR-42" value="" style="endArrow=classic;html=1;rounded=0;exitX=1.083;exitY=0.15;exitDx=0;exitDy=0;entryX=-0.083;entryY=0.139;entryDx=0;entryDy=0;exitPerimeter=0;entryPerimeter=0;" edge="1" parent="1" source="9pKAA7TK1SYcLC_sK4hR-40" target="9pKAA7TK1SYcLC_sK4hR-41">
          <mxGeometry width="50" height="50" relative="1" as="geometry">
            <mxPoint x="125" y="260" as="sourcePoint" />
            <mxPoint x="510" y="260" as="targetPoint" />
          </mxGeometry>
        </mxCell>
        <mxCell id="9pKAA7TK1SYcLC_sK4hR-43" value="Добавление предложения" style="edgeLabel;html=1;align=left;verticalAlign=middle;resizable=0;points=[];" vertex="1" connectable="0" parent="9pKAA7TK1SYcLC_sK4hR-42">
          <mxGeometry relative="1" as="geometry">
            <mxPoint x="-70" as="offset" />
          </mxGeometry>
        </mxCell>
        <mxCell id="9pKAA7TK1SYcLC_sK4hR-44" value="" style="rounded=0;whiteSpace=wrap;html=1;" vertex="1" parent="1">
          <mxGeometry x="710" y="265" width="10" height="30" as="geometry" />
        </mxCell>
        <mxCell id="9pKAA7TK1SYcLC_sK4hR-45" value="" style="endArrow=classic;html=1;rounded=0;entryX=1.081;entryY=0.829;entryDx=0;entryDy=0;exitX=1.04;exitY=0.176;exitDx=0;exitDy=0;exitPerimeter=0;entryPerimeter=0;" edge="1" parent="1" source="9pKAA7TK1SYcLC_sK4hR-44" target="9pKAA7TK1SYcLC_sK4hR-44">
          <mxGeometry width="50" height="50" relative="1" as="geometry">
            <mxPoint x="670" y="350" as="sourcePoint" />
            <mxPoint x="720" y="300" as="targetPoint" />
            <Array as="points">
              <mxPoint x="880" y="270" />
              <mxPoint x="880" y="290" />
              <mxPoint x="740" y="290" />
            </Array>
          </mxGeometry>
        </mxCell>
        <mxCell id="9pKAA7TK1SYcLC_sK4hR-46" value="Проверка допустимости отправки предложения" style="edgeLabel;html=1;align=center;verticalAlign=middle;resizable=0;points=[];" vertex="1" connectable="0" parent="9pKAA7TK1SYcLC_sK4hR-45">
          <mxGeometry x="-0.0084" relative="1" as="geometry">
            <mxPoint as="offset" />
          </mxGeometry>
        </mxCell>
        <mxCell id="9pKAA7TK1SYcLC_sK4hR-47" value="" style="endArrow=classic;html=1;rounded=0;exitX=0;exitY=0.75;exitDx=0;exitDy=0;entryX=1;entryY=0.75;entryDx=0;entryDy=0;" edge="1" parent="1" source="9pKAA7TK1SYcLC_sK4hR-41" target="9pKAA7TK1SYcLC_sK4hR-40">
          <mxGeometry width="50" height="50" relative="1" as="geometry">
            <mxPoint x="532" y="269" as="sourcePoint" />
            <mxPoint x="698" y="268" as="targetPoint" />
          </mxGeometry>
        </mxCell>
        <mxCell id="9pKAA7TK1SYcLC_sK4hR-48" value="Предложение отправлено" style="edgeLabel;html=1;align=left;verticalAlign=middle;resizable=0;points=[];" vertex="1" connectable="0" parent="9pKAA7TK1SYcLC_sK4hR-47">
          <mxGeometry relative="1" as="geometry">
            <mxPoint x="-65" as="offset" />
          </mxGeometry>
        </mxCell>
        <mxCell id="9pKAA7TK1SYcLC_sK4hR-52" value="" style="endArrow=classic;html=1;rounded=0;exitX=0;exitY=1;exitDx=0;exitDy=0;entryX=1;entryY=0;entryDx=0;entryDy=0;" edge="1" parent="1" source="9pKAA7TK1SYcLC_sK4hR-40" target="9pKAA7TK1SYcLC_sK4hR-51">
          <mxGeometry width="50" height="50" relative="1" as="geometry">
            <mxPoint x="500" y="310" as="sourcePoint" />
            <mxPoint x="120" y="310" as="targetPoint" />
          </mxGeometry>
        </mxCell>
        <mxCell id="9pKAA7TK1SYcLC_sK4hR-53" value="Оповещение о предложении" style="edgeLabel;html=1;align=left;verticalAlign=middle;resizable=0;points=[];" vertex="1" connectable="0" parent="9pKAA7TK1SYcLC_sK4hR-52">
          <mxGeometry relative="1" as="geometry">
            <mxPoint x="-65" as="offset" />
          </mxGeometry>
        </mxCell>
        <mxCell id="9pKAA7TK1SYcLC_sK4hR-54" value="" style="endArrow=none;dashed=1;html=1;dashPattern=1 3;strokeWidth=2;rounded=0;entryX=0.5;entryY=1;entryDx=0;entryDy=0;" edge="1" parent="1" source="9pKAA7TK1SYcLC_sK4hR-82" target="9pKAA7TK1SYcLC_sK4hR-51">
          <mxGeometry width="50" height="50" relative="1" as="geometry">
            <mxPoint x="309.5" y="550" as="sourcePoint" />
            <mxPoint x="309.5" y="100" as="targetPoint" />
          </mxGeometry>
        </mxCell>
        <mxCell id="9pKAA7TK1SYcLC_sK4hR-51" value="" style="rounded=0;whiteSpace=wrap;html=1;" vertex="1" parent="1">
          <mxGeometry x="300" y="310" width="20" height="60" as="geometry" />
        </mxCell>
        <mxCell id="9pKAA7TK1SYcLC_sK4hR-55" value="" style="endArrow=classic;html=1;rounded=0;exitX=0.941;exitY=0.337;exitDx=0;exitDy=0;entryX=0;entryY=0;entryDx=0;entryDy=0;exitPerimeter=0;" edge="1" parent="1" source="9pKAA7TK1SYcLC_sK4hR-51" target="9pKAA7TK1SYcLC_sK4hR-57">
          <mxGeometry width="50" height="50" relative="1" as="geometry">
            <mxPoint x="125" y="260" as="sourcePoint" />
            <mxPoint x="510" y="260" as="targetPoint" />
          </mxGeometry>
        </mxCell>
        <mxCell id="9pKAA7TK1SYcLC_sK4hR-56" value="Отправка ответа" style="edgeLabel;html=1;align=left;verticalAlign=middle;resizable=0;points=[];" vertex="1" connectable="0" parent="9pKAA7TK1SYcLC_sK4hR-55">
          <mxGeometry relative="1" as="geometry">
            <mxPoint x="-45" as="offset" />
          </mxGeometry>
        </mxCell>
        <mxCell id="9pKAA7TK1SYcLC_sK4hR-58" value="" style="endArrow=none;dashed=1;html=1;dashPattern=1 3;strokeWidth=2;rounded=0;entryX=0.5;entryY=1;entryDx=0;entryDy=0;" edge="1" parent="1" target="9pKAA7TK1SYcLC_sK4hR-57">
          <mxGeometry width="50" height="50" relative="1" as="geometry">
            <mxPoint x="510" y="760" as="sourcePoint" />
            <mxPoint x="510" y="200" as="targetPoint" />
          </mxGeometry>
        </mxCell>
        <mxCell id="9pKAA7TK1SYcLC_sK4hR-57" value="" style="rounded=0;whiteSpace=wrap;html=1;" vertex="1" parent="1">
          <mxGeometry x="500" y="330" width="20" height="60" as="geometry" />
        </mxCell>
        <mxCell id="9pKAA7TK1SYcLC_sK4hR-59" value="" style="rounded=0;whiteSpace=wrap;html=1;" vertex="1" parent="1">
          <mxGeometry x="690" y="330" width="20" height="60" as="geometry" />
        </mxCell>
        <mxCell id="9pKAA7TK1SYcLC_sK4hR-60" value="" style="rounded=0;whiteSpace=wrap;html=1;" vertex="1" parent="1">
          <mxGeometry x="710" y="345" width="10" height="30" as="geometry" />
        </mxCell>
        <mxCell id="9pKAA7TK1SYcLC_sK4hR-61" value="" style="endArrow=classic;html=1;rounded=0;entryX=1.081;entryY=0.829;entryDx=0;entryDy=0;exitX=1.04;exitY=0.176;exitDx=0;exitDy=0;exitPerimeter=0;entryPerimeter=0;" edge="1" parent="1" source="9pKAA7TK1SYcLC_sK4hR-60" target="9pKAA7TK1SYcLC_sK4hR-60">
          <mxGeometry width="50" height="50" relative="1" as="geometry">
            <mxPoint x="670" y="430" as="sourcePoint" />
            <mxPoint x="720" y="380" as="targetPoint" />
            <Array as="points">
              <mxPoint x="880" y="350" />
              <mxPoint x="880" y="370" />
              <mxPoint x="740" y="370" />
            </Array>
          </mxGeometry>
        </mxCell>
        <mxCell id="9pKAA7TK1SYcLC_sK4hR-62" value="Добавление ответа" style="edgeLabel;html=1;align=center;verticalAlign=middle;resizable=0;points=[];" vertex="1" connectable="0" parent="9pKAA7TK1SYcLC_sK4hR-61">
          <mxGeometry x="-0.0084" relative="1" as="geometry">
            <mxPoint as="offset" />
          </mxGeometry>
        </mxCell>
        <mxCell id="9pKAA7TK1SYcLC_sK4hR-66" value="" style="endArrow=classic;html=1;rounded=0;exitX=0.971;exitY=0.188;exitDx=0;exitDy=0;entryX=-0.014;entryY=0.188;entryDx=0;entryDy=0;exitPerimeter=0;entryPerimeter=0;" edge="1" parent="1" source="9pKAA7TK1SYcLC_sK4hR-57" target="9pKAA7TK1SYcLC_sK4hR-59">
          <mxGeometry width="50" height="50" relative="1" as="geometry">
            <mxPoint x="532" y="269" as="sourcePoint" />
            <mxPoint x="698" y="268" as="targetPoint" />
          </mxGeometry>
        </mxCell>
        <mxCell id="9pKAA7TK1SYcLC_sK4hR-67" value="Обработка ответа" style="edgeLabel;html=1;align=left;verticalAlign=middle;resizable=0;points=[];" vertex="1" connectable="0" parent="9pKAA7TK1SYcLC_sK4hR-66">
          <mxGeometry relative="1" as="geometry">
            <mxPoint x="-45" as="offset" />
          </mxGeometry>
        </mxCell>
        <mxCell id="9pKAA7TK1SYcLC_sK4hR-69" value="" style="endArrow=classic;html=1;rounded=0;exitX=0;exitY=0.829;exitDx=0;exitDy=0;entryX=1.007;entryY=0.833;entryDx=0;entryDy=0;exitPerimeter=0;entryPerimeter=0;" edge="1" parent="1" source="9pKAA7TK1SYcLC_sK4hR-59" target="9pKAA7TK1SYcLC_sK4hR-57">
          <mxGeometry width="50" height="50" relative="1" as="geometry">
            <mxPoint x="700" y="305" as="sourcePoint" />
            <mxPoint x="530" y="305" as="targetPoint" />
          </mxGeometry>
        </mxCell>
        <mxCell id="9pKAA7TK1SYcLC_sK4hR-70" value="Ответ обработан" style="edgeLabel;html=1;align=left;verticalAlign=middle;resizable=0;points=[];" vertex="1" connectable="0" parent="9pKAA7TK1SYcLC_sK4hR-69">
          <mxGeometry relative="1" as="geometry">
            <mxPoint x="-40" y="-1" as="offset" />
          </mxGeometry>
        </mxCell>
        <mxCell id="9pKAA7TK1SYcLC_sK4hR-71" value="" style="rounded=0;whiteSpace=wrap;html=1;" vertex="1" parent="1">
          <mxGeometry x="100" y="360" width="20" height="60" as="geometry" />
        </mxCell>
        <mxCell id="9pKAA7TK1SYcLC_sK4hR-72" value="" style="endArrow=classic;html=1;rounded=0;exitX=0;exitY=1;exitDx=0;exitDy=0;entryX=1;entryY=0.5;entryDx=0;entryDy=0;" edge="1" parent="1" source="9pKAA7TK1SYcLC_sK4hR-57" target="9pKAA7TK1SYcLC_sK4hR-71">
          <mxGeometry width="50" height="50" relative="1" as="geometry">
            <mxPoint x="510" y="210" as="sourcePoint" />
            <mxPoint x="130" y="210" as="targetPoint" />
          </mxGeometry>
        </mxCell>
        <mxCell id="9pKAA7TK1SYcLC_sK4hR-73" value="Оповещение об ответе фрилансера" style="edgeLabel;html=1;align=left;verticalAlign=middle;resizable=0;points=[];" vertex="1" connectable="0" parent="9pKAA7TK1SYcLC_sK4hR-72">
          <mxGeometry relative="1" as="geometry">
            <mxPoint x="-65" as="offset" />
          </mxGeometry>
        </mxCell>
        <mxCell id="9pKAA7TK1SYcLC_sK4hR-81" value="" style="endArrow=none;dashed=1;html=1;dashPattern=1 3;strokeWidth=2;rounded=0;entryX=0.5;entryY=1;entryDx=0;entryDy=0;" edge="1" parent="1" target="9pKAA7TK1SYcLC_sK4hR-80">
          <mxGeometry width="50" height="50" relative="1" as="geometry">
            <mxPoint x="110" y="760" as="sourcePoint" />
            <mxPoint x="110" y="200" as="targetPoint" />
          </mxGeometry>
        </mxCell>
        <mxCell id="9pKAA7TK1SYcLC_sK4hR-80" value="" style="rounded=0;whiteSpace=wrap;html=1;" vertex="1" parent="1">
          <mxGeometry x="100" y="450" width="20" height="60" as="geometry" />
        </mxCell>
        <mxCell id="9pKAA7TK1SYcLC_sK4hR-83" value="" style="endArrow=none;dashed=1;html=1;dashPattern=1 3;strokeWidth=2;rounded=0;entryX=0.5;entryY=1;entryDx=0;entryDy=0;" edge="1" parent="1" source="9pKAA7TK1SYcLC_sK4hR-116" target="9pKAA7TK1SYcLC_sK4hR-82">
          <mxGeometry width="50" height="50" relative="1" as="geometry">
            <mxPoint x="310" y="760" as="sourcePoint" />
            <mxPoint x="310" y="370" as="targetPoint" />
          </mxGeometry>
        </mxCell>
        <mxCell id="9pKAA7TK1SYcLC_sK4hR-82" value="" style="rounded=0;whiteSpace=wrap;html=1;" vertex="1" parent="1">
          <mxGeometry x="300" y="450" width="20" height="60" as="geometry" />
        </mxCell>
        <mxCell id="9pKAA7TK1SYcLC_sK4hR-84" value="" style="endArrow=classic;html=1;rounded=0;exitX=1;exitY=0;exitDx=0;exitDy=0;entryX=0;entryY=0;entryDx=0;entryDy=0;" edge="1" parent="1" source="9pKAA7TK1SYcLC_sK4hR-80" target="9pKAA7TK1SYcLC_sK4hR-82">
          <mxGeometry width="50" height="50" relative="1" as="geometry">
            <mxPoint x="329" y="340" as="sourcePoint" />
            <mxPoint x="510" y="340" as="targetPoint" />
          </mxGeometry>
        </mxCell>
        <mxCell id="9pKAA7TK1SYcLC_sK4hR-85" value="Обсуждение работы" style="edgeLabel;html=1;align=left;verticalAlign=middle;resizable=0;points=[];" vertex="1" connectable="0" parent="9pKAA7TK1SYcLC_sK4hR-84">
          <mxGeometry relative="1" as="geometry">
            <mxPoint x="-45" as="offset" />
          </mxGeometry>
        </mxCell>
        <mxCell id="9pKAA7TK1SYcLC_sK4hR-86" value="" style="endArrow=classic;html=1;rounded=0;exitX=0;exitY=1;exitDx=0;exitDy=0;entryX=1;entryY=1;entryDx=0;entryDy=0;" edge="1" parent="1" source="9pKAA7TK1SYcLC_sK4hR-82" target="9pKAA7TK1SYcLC_sK4hR-80">
          <mxGeometry width="50" height="50" relative="1" as="geometry">
            <mxPoint x="510" y="320" as="sourcePoint" />
            <mxPoint x="330" y="320" as="targetPoint" />
          </mxGeometry>
        </mxCell>
        <mxCell id="9pKAA7TK1SYcLC_sK4hR-87" value="Предоставление работы" style="edgeLabel;html=1;align=left;verticalAlign=middle;resizable=0;points=[];" vertex="1" connectable="0" parent="9pKAA7TK1SYcLC_sK4hR-86">
          <mxGeometry relative="1" as="geometry">
            <mxPoint x="-55" as="offset" />
          </mxGeometry>
        </mxCell>
        <mxCell id="9pKAA7TK1SYcLC_sK4hR-88" value="" style="rounded=0;whiteSpace=wrap;html=1;" vertex="1" parent="1">
          <mxGeometry x="100" y="550" width="20" height="60" as="geometry" />
        </mxCell>
        <mxCell id="9pKAA7TK1SYcLC_sK4hR-89" value="" style="endArrow=classic;html=1;rounded=0;exitX=0.75;exitY=0;exitDx=0;exitDy=0;entryX=0;entryY=0;entryDx=0;entryDy=0;" edge="1" parent="1" source="9pKAA7TK1SYcLC_sK4hR-88" target="9pKAA7TK1SYcLC_sK4hR-91">
          <mxGeometry width="50" height="50" relative="1" as="geometry">
            <mxPoint x="160" y="610" as="sourcePoint" />
            <mxPoint x="480" y="550" as="targetPoint" />
          </mxGeometry>
        </mxCell>
        <mxCell id="9pKAA7TK1SYcLC_sK4hR-90" value="Отправка отзыва" style="edgeLabel;html=1;align=left;verticalAlign=middle;resizable=0;points=[];" vertex="1" connectable="0" parent="9pKAA7TK1SYcLC_sK4hR-89">
          <mxGeometry relative="1" as="geometry">
            <mxPoint x="-35" as="offset" />
          </mxGeometry>
        </mxCell>
        <mxCell id="9pKAA7TK1SYcLC_sK4hR-91" value="" style="rounded=0;whiteSpace=wrap;html=1;" vertex="1" parent="1">
          <mxGeometry x="500" y="550" width="20" height="60" as="geometry" />
        </mxCell>
        <mxCell id="9pKAA7TK1SYcLC_sK4hR-92" value="" style="rounded=0;whiteSpace=wrap;html=1;" vertex="1" parent="1">
          <mxGeometry x="690" y="550" width="20" height="60" as="geometry" />
        </mxCell>
        <mxCell id="9pKAA7TK1SYcLC_sK4hR-93" value="" style="endArrow=classic;html=1;rounded=0;exitX=1.083;exitY=0.15;exitDx=0;exitDy=0;entryX=-0.083;entryY=0.139;entryDx=0;entryDy=0;exitPerimeter=0;entryPerimeter=0;" edge="1" parent="1" source="9pKAA7TK1SYcLC_sK4hR-91" target="9pKAA7TK1SYcLC_sK4hR-92">
          <mxGeometry width="50" height="50" relative="1" as="geometry">
            <mxPoint x="125" y="560" as="sourcePoint" />
            <mxPoint x="510" y="560" as="targetPoint" />
          </mxGeometry>
        </mxCell>
        <mxCell id="9pKAA7TK1SYcLC_sK4hR-94" value="Добавление отзыва" style="edgeLabel;html=1;align=left;verticalAlign=middle;resizable=0;points=[];" vertex="1" connectable="0" parent="9pKAA7TK1SYcLC_sK4hR-93">
          <mxGeometry relative="1" as="geometry">
            <mxPoint x="-50" as="offset" />
          </mxGeometry>
        </mxCell>
        <mxCell id="9pKAA7TK1SYcLC_sK4hR-95" value="" style="rounded=0;whiteSpace=wrap;html=1;" vertex="1" parent="1">
          <mxGeometry x="710" y="565" width="10" height="30" as="geometry" />
        </mxCell>
        <mxCell id="9pKAA7TK1SYcLC_sK4hR-96" value="" style="endArrow=classic;html=1;rounded=0;entryX=1.081;entryY=0.829;entryDx=0;entryDy=0;exitX=1.04;exitY=0.176;exitDx=0;exitDy=0;exitPerimeter=0;entryPerimeter=0;" edge="1" parent="1" source="9pKAA7TK1SYcLC_sK4hR-95" target="9pKAA7TK1SYcLC_sK4hR-95">
          <mxGeometry width="50" height="50" relative="1" as="geometry">
            <mxPoint x="670" y="650" as="sourcePoint" />
            <mxPoint x="720" y="600" as="targetPoint" />
            <Array as="points">
              <mxPoint x="880" y="570" />
              <mxPoint x="880" y="590" />
              <mxPoint x="740" y="590" />
            </Array>
          </mxGeometry>
        </mxCell>
        <mxCell id="9pKAA7TK1SYcLC_sK4hR-97" value="Проверка допустимости добавления отзыва" style="edgeLabel;html=1;align=center;verticalAlign=middle;resizable=0;points=[];" vertex="1" connectable="0" parent="9pKAA7TK1SYcLC_sK4hR-96">
          <mxGeometry x="-0.0084" relative="1" as="geometry">
            <mxPoint as="offset" />
          </mxGeometry>
        </mxCell>
        <mxCell id="9pKAA7TK1SYcLC_sK4hR-98" value="" style="endArrow=classic;html=1;rounded=0;exitX=0;exitY=0.75;exitDx=0;exitDy=0;entryX=1;entryY=0.75;entryDx=0;entryDy=0;" edge="1" parent="1" source="9pKAA7TK1SYcLC_sK4hR-92" target="9pKAA7TK1SYcLC_sK4hR-91">
          <mxGeometry width="50" height="50" relative="1" as="geometry">
            <mxPoint x="532" y="569" as="sourcePoint" />
            <mxPoint x="698" y="568" as="targetPoint" />
          </mxGeometry>
        </mxCell>
        <mxCell id="9pKAA7TK1SYcLC_sK4hR-99" value="Отзыв добавлен" style="edgeLabel;html=1;align=left;verticalAlign=middle;resizable=0;points=[];" vertex="1" connectable="0" parent="9pKAA7TK1SYcLC_sK4hR-98">
          <mxGeometry relative="1" as="geometry">
            <mxPoint x="-40" as="offset" />
          </mxGeometry>
        </mxCell>
        <mxCell id="9pKAA7TK1SYcLC_sK4hR-100" value="" style="endArrow=classic;html=1;rounded=0;exitX=0;exitY=1;exitDx=0;exitDy=0;entryX=1;entryY=1;entryDx=0;entryDy=0;" edge="1" parent="1" source="9pKAA7TK1SYcLC_sK4hR-91" target="9pKAA7TK1SYcLC_sK4hR-88">
          <mxGeometry width="50" height="50" relative="1" as="geometry">
            <mxPoint x="125" y="560" as="sourcePoint" />
            <mxPoint x="510" y="560" as="targetPoint" />
          </mxGeometry>
        </mxCell>
        <mxCell id="9pKAA7TK1SYcLC_sK4hR-101" value="Оповещение о добавлении отзыва" style="edgeLabel;html=1;align=left;verticalAlign=middle;resizable=0;points=[];" vertex="1" connectable="0" parent="9pKAA7TK1SYcLC_sK4hR-100">
          <mxGeometry relative="1" as="geometry">
            <mxPoint x="-75" as="offset" />
          </mxGeometry>
        </mxCell>
        <mxCell id="9pKAA7TK1SYcLC_sK4hR-117" value="" style="endArrow=classic;html=1;rounded=0;exitX=0.75;exitY=0;exitDx=0;exitDy=0;entryX=0;entryY=0;entryDx=0;entryDy=0;" edge="1" parent="1" source="9pKAA7TK1SYcLC_sK4hR-116" target="9pKAA7TK1SYcLC_sK4hR-119">
          <mxGeometry width="50" height="50" relative="1" as="geometry">
            <mxPoint x="160" y="710" as="sourcePoint" />
            <mxPoint x="480" y="650" as="targetPoint" />
          </mxGeometry>
        </mxCell>
        <mxCell id="9pKAA7TK1SYcLC_sK4hR-118" value="Отправка отзыва" style="edgeLabel;html=1;align=left;verticalAlign=middle;resizable=0;points=[];" vertex="1" connectable="0" parent="9pKAA7TK1SYcLC_sK4hR-117">
          <mxGeometry relative="1" as="geometry">
            <mxPoint x="-35" as="offset" />
          </mxGeometry>
        </mxCell>
        <mxCell id="9pKAA7TK1SYcLC_sK4hR-119" value="" style="rounded=0;whiteSpace=wrap;html=1;" vertex="1" parent="1">
          <mxGeometry x="500" y="650" width="20" height="60" as="geometry" />
        </mxCell>
        <mxCell id="9pKAA7TK1SYcLC_sK4hR-120" value="" style="rounded=0;whiteSpace=wrap;html=1;" vertex="1" parent="1">
          <mxGeometry x="690" y="650" width="20" height="60" as="geometry" />
        </mxCell>
        <mxCell id="9pKAA7TK1SYcLC_sK4hR-121" value="" style="endArrow=classic;html=1;rounded=0;exitX=1.083;exitY=0.15;exitDx=0;exitDy=0;entryX=-0.083;entryY=0.139;entryDx=0;entryDy=0;exitPerimeter=0;entryPerimeter=0;" edge="1" parent="1" source="9pKAA7TK1SYcLC_sK4hR-119" target="9pKAA7TK1SYcLC_sK4hR-120">
          <mxGeometry width="50" height="50" relative="1" as="geometry">
            <mxPoint x="125" y="660" as="sourcePoint" />
            <mxPoint x="510" y="660" as="targetPoint" />
          </mxGeometry>
        </mxCell>
        <mxCell id="9pKAA7TK1SYcLC_sK4hR-122" value="Добавление отзыва" style="edgeLabel;html=1;align=left;verticalAlign=middle;resizable=0;points=[];" vertex="1" connectable="0" parent="9pKAA7TK1SYcLC_sK4hR-121">
          <mxGeometry relative="1" as="geometry">
            <mxPoint x="-50" as="offset" />
          </mxGeometry>
        </mxCell>
        <mxCell id="9pKAA7TK1SYcLC_sK4hR-123" value="" style="rounded=0;whiteSpace=wrap;html=1;" vertex="1" parent="1">
          <mxGeometry x="710" y="665" width="10" height="30" as="geometry" />
        </mxCell>
        <mxCell id="9pKAA7TK1SYcLC_sK4hR-124" value="" style="endArrow=classic;html=1;rounded=0;entryX=1.081;entryY=0.829;entryDx=0;entryDy=0;exitX=1.04;exitY=0.176;exitDx=0;exitDy=0;exitPerimeter=0;entryPerimeter=0;" edge="1" parent="1" source="9pKAA7TK1SYcLC_sK4hR-123" target="9pKAA7TK1SYcLC_sK4hR-123">
          <mxGeometry width="50" height="50" relative="1" as="geometry">
            <mxPoint x="670" y="750" as="sourcePoint" />
            <mxPoint x="720" y="700" as="targetPoint" />
            <Array as="points">
              <mxPoint x="880" y="670" />
              <mxPoint x="880" y="690" />
              <mxPoint x="740" y="690" />
            </Array>
          </mxGeometry>
        </mxCell>
        <mxCell id="9pKAA7TK1SYcLC_sK4hR-125" value="Проверка допустимости добавления отзыва" style="edgeLabel;html=1;align=center;verticalAlign=middle;resizable=0;points=[];" vertex="1" connectable="0" parent="9pKAA7TK1SYcLC_sK4hR-124">
          <mxGeometry x="-0.0084" relative="1" as="geometry">
            <mxPoint as="offset" />
          </mxGeometry>
        </mxCell>
        <mxCell id="9pKAA7TK1SYcLC_sK4hR-126" value="" style="endArrow=classic;html=1;rounded=0;exitX=0;exitY=0.75;exitDx=0;exitDy=0;entryX=1;entryY=0.75;entryDx=0;entryDy=0;" edge="1" parent="1" source="9pKAA7TK1SYcLC_sK4hR-120" target="9pKAA7TK1SYcLC_sK4hR-119">
          <mxGeometry width="50" height="50" relative="1" as="geometry">
            <mxPoint x="532" y="669" as="sourcePoint" />
            <mxPoint x="698" y="668" as="targetPoint" />
          </mxGeometry>
        </mxCell>
        <mxCell id="9pKAA7TK1SYcLC_sK4hR-127" value="Отзыв добавлен" style="edgeLabel;html=1;align=left;verticalAlign=middle;resizable=0;points=[];" vertex="1" connectable="0" parent="9pKAA7TK1SYcLC_sK4hR-126">
          <mxGeometry relative="1" as="geometry">
            <mxPoint x="-40" as="offset" />
          </mxGeometry>
        </mxCell>
        <mxCell id="9pKAA7TK1SYcLC_sK4hR-128" value="" style="endArrow=classic;html=1;rounded=0;exitX=0;exitY=1;exitDx=0;exitDy=0;entryX=1;entryY=1;entryDx=0;entryDy=0;" edge="1" parent="1" source="9pKAA7TK1SYcLC_sK4hR-119" target="9pKAA7TK1SYcLC_sK4hR-116">
          <mxGeometry width="50" height="50" relative="1" as="geometry">
            <mxPoint x="125" y="660" as="sourcePoint" />
            <mxPoint x="510" y="660" as="targetPoint" />
          </mxGeometry>
        </mxCell>
        <mxCell id="9pKAA7TK1SYcLC_sK4hR-129" value="Оповещение о добавлении" style="edgeLabel;html=1;align=left;verticalAlign=middle;resizable=0;points=[];" vertex="1" connectable="0" parent="9pKAA7TK1SYcLC_sK4hR-128">
          <mxGeometry relative="1" as="geometry">
            <mxPoint x="-65" as="offset" />
          </mxGeometry>
        </mxCell>
        <mxCell id="9pKAA7TK1SYcLC_sK4hR-130" value="" style="endArrow=none;dashed=1;html=1;dashPattern=1 3;strokeWidth=2;rounded=0;entryX=0.5;entryY=1;entryDx=0;entryDy=0;" edge="1" parent="1" target="9pKAA7TK1SYcLC_sK4hR-116">
          <mxGeometry width="50" height="50" relative="1" as="geometry">
            <mxPoint x="310" y="760" as="sourcePoint" />
            <mxPoint x="310" y="510" as="targetPoint" />
          </mxGeometry>
        </mxCell>
        <mxCell id="9pKAA7TK1SYcLC_sK4hR-116" value="" style="rounded=0;whiteSpace=wrap;html=1;" vertex="1" parent="1">
          <mxGeometry x="300" y="650" width="20" height="60" as="geometry" />
        </mxCell>
      </root>
    </mxGraphModel>
  </diagram>
</mxfile>
